<svg xmlns="http://www.w3.org/2000/svg" viewBox="0 0 9.24 9.17"><defs><style>.cls-1{fill:#7cc9e4;}.cls-2{fill:#f2eb90;}.cls-3{fill:#2ea7e0;opacity:0.37;}</style></defs><title>logo_1</title><g id="图层_2" data-name="图层 2"><g id="图层_1-2" data-name="图层 1"><path class="cls-1" d="M8.64,2.26A4.6,4.6,0,0,1,7.84,4a4.63,4.63,0,0,1-6.47.93A4.6,4.6,0,0,1,.12,3.49,4.62,4.62,0,1,0,8.64,2.26Z"/><path class="cls-2" d="M6.86,2.23A4.6,4.6,0,0,0,6.47.39,4.62,4.62,0,0,0,.39,6.47a4.6,4.6,0,0,0,1.85.39A4.63,4.63,0,0,0,6.86,2.23Z"/><path class="cls-3" d="M2.23,6.86A4.59,4.59,0,0,0,5.32,5.65a4.6,4.6,0,0,1-4-.75A4.59,4.59,0,0,1,.14,3.52a4.61,4.61,0,0,0-.14,1c0,.07,0,.13,0,.2a4.53,4.53,0,0,0,.07.7A4.63,4.63,0,0,0,.24,6l0,.08c0,.13.1.25.16.37A4.59,4.59,0,0,0,2.23,6.86Z"/></g></g></svg>